<svg xmlns="http://www.w3.org/2000/svg" viewBox="148 68.0 2892 1213.0" width="1600" font-family="-apple-system,BlinkMacSystemFont,Segoe UI,Helvetica,Arial,sans-serif">
<rect x="148" y="68.0" width="2892" height="1213.0" fill="#f7f7f8"/>
<defs><pattern id="g" width="20" height="20" patternUnits="userSpaceOnUse"><circle cx="1" cy="1" r="1" fill="#dcdce0"/></pattern></defs>
<rect x="148" y="68.0" width="2892" height="1213.0" fill="url(#g)"/>
<rect x="192" y="112.0" width="540" height="171" rx="8" fill="#cfe4ff" fill-opacity="0.55" stroke="#d8cf7a" stroke-opacity="0.6"/>
<text x="204" y="136.0" font-size="13.5" font-weight="700" fill="#5f5930">AI Ad Engine — Solarify</text>
<text x="204" y="153.0" font-size="11.5" fill="#6f6840">Weekly solar ad generation pipeline</text>
<text x="204" y="167.0" font-size="11.5" fill="#6f6840">Runs every Monday 8AM → 5 solar ad variants (copy + 4:5 image) → Google</text>
<text x="204" y="181.0" font-size="11.5" fill="#6f6840">Drive + Google Sheets.</text>
<text x="204" y="195.0" font-size="11.5" fill="#6f6840">COPY: Perplexity sonar-pro → 5 angles with hook, body, incentive, CTA</text>
<text x="204" y="209.0" font-size="11.5" fill="#6f6840">IMAGES: DALL-E 3 HD Natural → 1024x1792 portrait PNGs → Google Drive</text>
<text x="204" y="223.0" font-size="11.5" fill="#6f6840">OUTPUT: All copy + Drive links logged to Google Sheets</text>
<text x="204" y="237.0" font-size="11.5" fill="#6f6840">Drive folder: 1TocUq38pK7P6NySsAGTOAQvj8UPGAeBa</text>
<text x="204" y="251.0" font-size="11.5" fill="#6f6840">Sheet: YOUR_ADS_SHEET_ID</text>
<g fill="none" stroke="#9aa0a6" stroke-width="2.5">
<path d="M308,675 C364,675 376,771 425,771"/>
<path d="M425,766 L432,771 L425,776" fill="#9aa0a6" stroke="none"/>
<path d="M308,867 C364,867 376,771 425,771"/>
<path d="M425,766 L432,771 L425,776" fill="#9aa0a6" stroke="none"/>
<path d="M532,771 C588,771 600,771 649,771"/>
<path d="M649,766 L656,771 L649,776" fill="#9aa0a6" stroke="none"/>
<path d="M756,771 C812,771 824,771 873,771"/>
<path d="M873,766 L880,771 L873,776" fill="#9aa0a6" stroke="none"/>
<path d="M980,771 C1036,771 1048,771 1097,771"/>
<path d="M1097,766 L1104,771 L1097,776" fill="#9aa0a6" stroke="none"/>
<path d="M1204,771 C1260,771 1272,771 1321,771"/>
<path d="M1321,766 L1328,771 L1321,776" fill="#9aa0a6" stroke="none"/>
<path d="M1428,771 C1484,771 1496,723 1545,723"/>
<path d="M1545,718 L1552,723 L1545,728" fill="#9aa0a6" stroke="none"/>
<path d="M1652,690 C1708,690 1720,1153 1769,1153"/>
<path d="M1769,1148 L1776,1153 L1769,1158" fill="#9aa0a6" stroke="none"/>
<path d="M1652,706 C1708,706 1720,389 1769,389"/>
<path d="M1769,384 L1776,389 L1769,394" fill="#9aa0a6" stroke="none"/>
<path d="M1652,723 C1708,723 1720,579 1769,579"/>
<path d="M1769,574 L1776,579 L1769,584" fill="#9aa0a6" stroke="none"/>
<path d="M1652,740 C1708,740 1720,771 1769,771"/>
<path d="M1769,766 L1776,771 L1769,776" fill="#9aa0a6" stroke="none"/>
<path d="M1652,756 C1708,756 1720,963 1769,963"/>
<path d="M1769,958 L1776,963 L1769,968" fill="#9aa0a6" stroke="none"/>
<path d="M1876,1153 C1932,1153 1944,1153 1993,1153"/>
<path d="M1993,1148 L2000,1153 L1993,1158" fill="#9aa0a6" stroke="none"/>
<path d="M2100,1153 C2156,1153 2168,1153 2217,1153"/>
<path d="M2217,1148 L2224,1153 L2217,1158" fill="#9aa0a6" stroke="none"/>
<path d="M2324,1153 C2380,1153 2392,1153 2441,1153"/>
<path d="M2441,1148 L2448,1153 L2441,1158" fill="#9aa0a6" stroke="none"/>
<path d="M2548,1153 C2604,1153 2616,1153 2665,1153"/>
<path d="M2665,1148 L2672,1153 L2665,1158" fill="#9aa0a6" stroke="none"/>
<path d="M2772,1153 C2828,1153 2840,1153 2889,1153"/>
<path d="M2889,1148 L2896,1153 L2889,1158" fill="#9aa0a6" stroke="none"/>
<path d="M1876,389 C1932,389 1944,389 1993,389"/>
<path d="M1993,384 L2000,389 L1993,394" fill="#9aa0a6" stroke="none"/>
<path d="M2100,389 C2156,389 2168,389 2217,389"/>
<path d="M2217,384 L2224,389 L2217,394" fill="#9aa0a6" stroke="none"/>
<path d="M2324,389 C2380,389 2392,389 2441,389"/>
<path d="M2441,384 L2448,389 L2441,394" fill="#9aa0a6" stroke="none"/>
<path d="M2548,389 C2604,389 2616,389 2665,389"/>
<path d="M2665,384 L2672,389 L2665,394" fill="#9aa0a6" stroke="none"/>
<path d="M2772,389 C2828,389 2840,389 2889,389"/>
<path d="M2889,384 L2896,389 L2889,394" fill="#9aa0a6" stroke="none"/>
<path d="M1876,579 C1932,579 1944,579 1993,579"/>
<path d="M1993,574 L2000,579 L1993,584" fill="#9aa0a6" stroke="none"/>
<path d="M2100,579 C2156,579 2168,579 2217,579"/>
<path d="M2217,574 L2224,579 L2217,584" fill="#9aa0a6" stroke="none"/>
<path d="M2324,579 C2380,579 2392,579 2441,579"/>
<path d="M2441,574 L2448,579 L2441,584" fill="#9aa0a6" stroke="none"/>
<path d="M2548,579 C2604,579 2616,579 2665,579"/>
<path d="M2665,574 L2672,579 L2665,584" fill="#9aa0a6" stroke="none"/>
<path d="M2772,579 C2828,579 2840,579 2889,579"/>
<path d="M2889,574 L2896,579 L2889,584" fill="#9aa0a6" stroke="none"/>
<path d="M1876,771 C1932,771 1944,771 1993,771"/>
<path d="M1993,766 L2000,771 L1993,776" fill="#9aa0a6" stroke="none"/>
<path d="M2100,771 C2156,771 2168,771 2217,771"/>
<path d="M2217,766 L2224,771 L2217,776" fill="#9aa0a6" stroke="none"/>
<path d="M2324,771 C2380,771 2392,771 2441,771"/>
<path d="M2441,766 L2448,771 L2441,776" fill="#9aa0a6" stroke="none"/>
<path d="M2548,771 C2604,771 2616,771 2665,771"/>
<path d="M2665,766 L2672,771 L2665,776" fill="#9aa0a6" stroke="none"/>
<path d="M2772,771 C2828,771 2840,771 2889,771"/>
<path d="M2889,766 L2896,771 L2889,776" fill="#9aa0a6" stroke="none"/>
<path d="M1876,963 C1932,963 1944,963 1993,963"/>
<path d="M1993,958 L2000,963 L1993,968" fill="#9aa0a6" stroke="none"/>
<path d="M2100,963 C2156,963 2168,963 2217,963"/>
<path d="M2217,958 L2224,963 L2217,968" fill="#9aa0a6" stroke="none"/>
<path d="M2324,963 C2380,963 2392,963 2441,963"/>
<path d="M2441,958 L2448,963 L2441,968" fill="#9aa0a6" stroke="none"/>
<path d="M2548,963 C2604,963 2616,963 2665,963"/>
<path d="M2665,958 L2672,963 L2665,968" fill="#9aa0a6" stroke="none"/>
<path d="M2772,963 C2828,963 2840,963 2889,963"/>
<path d="M2889,958 L2896,963 L2889,968" fill="#9aa0a6" stroke="none"/>
</g>
<rect x="208" y="625.0" width="100" height="100" rx="50" fill="#ffffff" stroke="#f0a30a" stroke-width="3"/>
<rect x="208" y="625.0" width="100" height="100" rx="50" fill="#f0a30a" fill-opacity="0.10"/>
<text x="258.0" y="671.0" font-size="11" text-anchor="middle" fill="#f0a30a" font-weight="700">schedule</text>
<text x="258.0" y="740.0" font-size="11.5" text-anchor="middle" fill="#2b2f36">Schedule Trigger</text>
<rect x="208" y="817.0" width="100" height="100" rx="50" fill="#ffffff" stroke="#f0a30a" stroke-width="3"/>
<rect x="208" y="817.0" width="100" height="100" rx="50" fill="#f0a30a" fill-opacity="0.10"/>
<text x="258.0" y="863.0" font-size="11" text-anchor="middle" fill="#f0a30a" font-weight="700">manualTrigger</text>
<text x="258.0" y="932.0" font-size="11.5" text-anchor="middle" fill="#2b2f36">Manual Trigger</text>
<rect x="432" y="721.0" width="100" height="100" rx="10" fill="#ffffff" stroke="#0aa8a7" stroke-width="3"/>
<rect x="432" y="721.0" width="100" height="100" rx="10" fill="#0aa8a7" fill-opacity="0.10"/>
<text x="482.0" y="767.0" font-size="11" text-anchor="middle" fill="#0aa8a7" font-weight="700">set</text>
<text x="482.0" y="836.0" font-size="11.5" text-anchor="middle" fill="#2b2f36">Campaign Config</text>
<rect x="656" y="721.0" width="100" height="100" rx="10" fill="#ffffff" stroke="#2b6cb0" stroke-width="3"/>
<rect x="656" y="721.0" width="100" height="100" rx="10" fill="#2b6cb0" fill-opacity="0.10"/>
<text x="706.0" y="767.0" font-size="11" text-anchor="middle" fill="#2b6cb0" font-weight="700">HTTP</text>
<text x="706.0" y="836.0" font-size="11.5" text-anchor="middle" fill="#2b2f36">Perplexity Research</text>
<rect x="880" y="721.0" width="100" height="100" rx="10" fill="#ffffff" stroke="#f56b6b" stroke-width="3"/>
<rect x="880" y="721.0" width="100" height="100" rx="10" fill="#f56b6b" fill-opacity="0.10"/>
<text x="930.0" y="767.0" font-size="11" text-anchor="middle" fill="#f56b6b" font-weight="700">code</text>
<text x="930.0" y="836.0" font-size="11.5" text-anchor="middle" fill="#2b2f36">Build Copy Prompt</text>
<rect x="1104" y="721.0" width="100" height="100" rx="10" fill="#ffffff" stroke="#2b6cb0" stroke-width="3"/>
<rect x="1104" y="721.0" width="100" height="100" rx="10" fill="#2b6cb0" fill-opacity="0.10"/>
<text x="1154.0" y="767.0" font-size="11" text-anchor="middle" fill="#2b6cb0" font-weight="700">HTTP</text>
<text x="1154.0" y="836.0" font-size="11.5" text-anchor="middle" fill="#2b2f36">Generate Copy</text>
<text x="1154.0" y="849.0" font-size="11.5" text-anchor="middle" fill="#2b2f36">(Perplexity)</text>
<rect x="1328" y="721.0" width="100" height="100" rx="10" fill="#ffffff" stroke="#f56b6b" stroke-width="3"/>
<rect x="1328" y="721.0" width="100" height="100" rx="10" fill="#f56b6b" fill-opacity="0.10"/>
<text x="1378.0" y="767.0" font-size="11" text-anchor="middle" fill="#f56b6b" font-weight="700">code</text>
<text x="1378.0" y="836.0" font-size="11.5" text-anchor="middle" fill="#2b2f36">Parse Angles</text>
<rect x="1552" y="673.0" width="100" height="100" rx="10" fill="#ffffff" stroke="#408fdd" stroke-width="3"/>
<rect x="1552" y="673.0" width="100" height="100" rx="10" fill="#408fdd" fill-opacity="0.10"/>
<text x="1602.0" y="719.0" font-size="11" text-anchor="middle" fill="#408fdd" font-weight="700">switch</text>
<text x="1602.0" y="788.0" font-size="11.5" text-anchor="middle" fill="#2b2f36">Route by Angle</text>
<rect x="1776" y="1103.0" width="100" height="100" rx="10" fill="#ffffff" stroke="#f56b6b" stroke-width="3"/>
<rect x="1776" y="1103.0" width="100" height="100" rx="10" fill="#f56b6b" fill-opacity="0.10"/>
<text x="1826.0" y="1149.0" font-size="11" text-anchor="middle" fill="#f56b6b" font-weight="700">code</text>
<text x="1826.0" y="1218.0" font-size="11.5" text-anchor="middle" fill="#2b2f36">Build Image Prompt 1</text>
<rect x="2000" y="1103.0" width="100" height="100" rx="10" fill="#ffffff" stroke="#2b6cb0" stroke-width="3"/>
<rect x="2000" y="1103.0" width="100" height="100" rx="10" fill="#2b6cb0" fill-opacity="0.10"/>
<text x="2050.0" y="1149.0" font-size="11" text-anchor="middle" fill="#2b6cb0" font-weight="700">HTTP</text>
<text x="2050.0" y="1218.0" font-size="11.5" text-anchor="middle" fill="#2b2f36">Generate Image 1</text>
<rect x="2224" y="1103.0" width="100" height="100" rx="10" fill="#ffffff" stroke="#f56b6b" stroke-width="3"/>
<rect x="2224" y="1103.0" width="100" height="100" rx="10" fill="#f56b6b" fill-opacity="0.10"/>
<text x="2274.0" y="1149.0" font-size="11" text-anchor="middle" fill="#f56b6b" font-weight="700">code</text>
<text x="2274.0" y="1218.0" font-size="11.5" text-anchor="middle" fill="#2b2f36">Process Image 1</text>
<rect x="2448" y="1103.0" width="100" height="100" rx="10" fill="#ffffff" stroke="#ffba00" stroke-width="3"/>
<rect x="2448" y="1103.0" width="100" height="100" rx="10" fill="#ffba00" fill-opacity="0.10"/>
<text x="2498.0" y="1149.0" font-size="11" text-anchor="middle" fill="#ffba00" font-weight="700">Drive</text>
<text x="2498.0" y="1218.0" font-size="11.5" text-anchor="middle" fill="#2b2f36">Upload to Drive 1</text>
<rect x="2672" y="1103.0" width="100" height="100" rx="10" fill="#ffffff" stroke="#f56b6b" stroke-width="3"/>
<rect x="2672" y="1103.0" width="100" height="100" rx="10" fill="#f56b6b" fill-opacity="0.10"/>
<text x="2722.0" y="1149.0" font-size="11" text-anchor="middle" fill="#f56b6b" font-weight="700">code</text>
<text x="2722.0" y="1218.0" font-size="11.5" text-anchor="middle" fill="#2b2f36">Prepare Sheet Row 1</text>
<rect x="2896" y="1103.0" width="100" height="100" rx="10" fill="#ffffff" stroke="#0f9d58" stroke-width="3"/>
<rect x="2896" y="1103.0" width="100" height="100" rx="10" fill="#0f9d58" fill-opacity="0.10"/>
<text x="2946.0" y="1149.0" font-size="11" text-anchor="middle" fill="#0f9d58" font-weight="700">Sheets</text>
<text x="2946.0" y="1218.0" font-size="11.5" text-anchor="middle" fill="#2b2f36">Write to Sheets 1</text>
<rect x="1776" y="339.0" width="100" height="100" rx="10" fill="#ffffff" stroke="#f56b6b" stroke-width="3"/>
<rect x="1776" y="339.0" width="100" height="100" rx="10" fill="#f56b6b" fill-opacity="0.10"/>
<text x="1826.0" y="385.0" font-size="11" text-anchor="middle" fill="#f56b6b" font-weight="700">code</text>
<text x="1826.0" y="454.0" font-size="11.5" text-anchor="middle" fill="#2b2f36">Build Image Prompt 2</text>
<rect x="2000" y="339.0" width="100" height="100" rx="10" fill="#ffffff" stroke="#2b6cb0" stroke-width="3"/>
<rect x="2000" y="339.0" width="100" height="100" rx="10" fill="#2b6cb0" fill-opacity="0.10"/>
<text x="2050.0" y="385.0" font-size="11" text-anchor="middle" fill="#2b6cb0" font-weight="700">HTTP</text>
<text x="2050.0" y="454.0" font-size="11.5" text-anchor="middle" fill="#2b2f36">Generate Image 2</text>
<rect x="2224" y="339.0" width="100" height="100" rx="10" fill="#ffffff" stroke="#f56b6b" stroke-width="3"/>
<rect x="2224" y="339.0" width="100" height="100" rx="10" fill="#f56b6b" fill-opacity="0.10"/>
<text x="2274.0" y="385.0" font-size="11" text-anchor="middle" fill="#f56b6b" font-weight="700">code</text>
<text x="2274.0" y="454.0" font-size="11.5" text-anchor="middle" fill="#2b2f36">Process Image 2</text>
<rect x="2448" y="339.0" width="100" height="100" rx="10" fill="#ffffff" stroke="#ffba00" stroke-width="3"/>
<rect x="2448" y="339.0" width="100" height="100" rx="10" fill="#ffba00" fill-opacity="0.10"/>
<text x="2498.0" y="385.0" font-size="11" text-anchor="middle" fill="#ffba00" font-weight="700">Drive</text>
<text x="2498.0" y="454.0" font-size="11.5" text-anchor="middle" fill="#2b2f36">Upload to Drive 2</text>
<rect x="2672" y="339.0" width="100" height="100" rx="10" fill="#ffffff" stroke="#f56b6b" stroke-width="3"/>
<rect x="2672" y="339.0" width="100" height="100" rx="10" fill="#f56b6b" fill-opacity="0.10"/>
<text x="2722.0" y="385.0" font-size="11" text-anchor="middle" fill="#f56b6b" font-weight="700">code</text>
<text x="2722.0" y="454.0" font-size="11.5" text-anchor="middle" fill="#2b2f36">Prepare Sheet Row 2</text>
<rect x="2896" y="339.0" width="100" height="100" rx="10" fill="#ffffff" stroke="#0f9d58" stroke-width="3"/>
<rect x="2896" y="339.0" width="100" height="100" rx="10" fill="#0f9d58" fill-opacity="0.10"/>
<text x="2946.0" y="385.0" font-size="11" text-anchor="middle" fill="#0f9d58" font-weight="700">Sheets</text>
<text x="2946.0" y="454.0" font-size="11.5" text-anchor="middle" fill="#2b2f36">Write to Sheets 2</text>
<rect x="1776" y="529.0" width="100" height="100" rx="10" fill="#ffffff" stroke="#f56b6b" stroke-width="3"/>
<rect x="1776" y="529.0" width="100" height="100" rx="10" fill="#f56b6b" fill-opacity="0.10"/>
<text x="1826.0" y="575.0" font-size="11" text-anchor="middle" fill="#f56b6b" font-weight="700">code</text>
<text x="1826.0" y="644.0" font-size="11.5" text-anchor="middle" fill="#2b2f36">Build Image Prompt 3</text>
<rect x="2000" y="529.0" width="100" height="100" rx="10" fill="#ffffff" stroke="#2b6cb0" stroke-width="3"/>
<rect x="2000" y="529.0" width="100" height="100" rx="10" fill="#2b6cb0" fill-opacity="0.10"/>
<text x="2050.0" y="575.0" font-size="11" text-anchor="middle" fill="#2b6cb0" font-weight="700">HTTP</text>
<text x="2050.0" y="644.0" font-size="11.5" text-anchor="middle" fill="#2b2f36">Generate Image 3</text>
<rect x="2224" y="529.0" width="100" height="100" rx="10" fill="#ffffff" stroke="#f56b6b" stroke-width="3"/>
<rect x="2224" y="529.0" width="100" height="100" rx="10" fill="#f56b6b" fill-opacity="0.10"/>
<text x="2274.0" y="575.0" font-size="11" text-anchor="middle" fill="#f56b6b" font-weight="700">code</text>
<text x="2274.0" y="644.0" font-size="11.5" text-anchor="middle" fill="#2b2f36">Process Image 3</text>
<rect x="2448" y="529.0" width="100" height="100" rx="10" fill="#ffffff" stroke="#ffba00" stroke-width="3"/>
<rect x="2448" y="529.0" width="100" height="100" rx="10" fill="#ffba00" fill-opacity="0.10"/>
<text x="2498.0" y="575.0" font-size="11" text-anchor="middle" fill="#ffba00" font-weight="700">Drive</text>
<text x="2498.0" y="644.0" font-size="11.5" text-anchor="middle" fill="#2b2f36">Upload to Drive 3</text>
<rect x="2672" y="529.0" width="100" height="100" rx="10" fill="#ffffff" stroke="#f56b6b" stroke-width="3"/>
<rect x="2672" y="529.0" width="100" height="100" rx="10" fill="#f56b6b" fill-opacity="0.10"/>
<text x="2722.0" y="575.0" font-size="11" text-anchor="middle" fill="#f56b6b" font-weight="700">code</text>
<text x="2722.0" y="644.0" font-size="11.5" text-anchor="middle" fill="#2b2f36">Prepare Sheet Row 3</text>
<rect x="2896" y="529.0" width="100" height="100" rx="10" fill="#ffffff" stroke="#0f9d58" stroke-width="3"/>
<rect x="2896" y="529.0" width="100" height="100" rx="10" fill="#0f9d58" fill-opacity="0.10"/>
<text x="2946.0" y="575.0" font-size="11" text-anchor="middle" fill="#0f9d58" font-weight="700">Sheets</text>
<text x="2946.0" y="644.0" font-size="11.5" text-anchor="middle" fill="#2b2f36">Write to Sheets 3</text>
<rect x="1776" y="721.0" width="100" height="100" rx="10" fill="#ffffff" stroke="#f56b6b" stroke-width="3"/>
<rect x="1776" y="721.0" width="100" height="100" rx="10" fill="#f56b6b" fill-opacity="0.10"/>
<text x="1826.0" y="767.0" font-size="11" text-anchor="middle" fill="#f56b6b" font-weight="700">code</text>
<text x="1826.0" y="836.0" font-size="11.5" text-anchor="middle" fill="#2b2f36">Build Image Prompt 4</text>
<rect x="2000" y="721.0" width="100" height="100" rx="10" fill="#ffffff" stroke="#2b6cb0" stroke-width="3"/>
<rect x="2000" y="721.0" width="100" height="100" rx="10" fill="#2b6cb0" fill-opacity="0.10"/>
<text x="2050.0" y="767.0" font-size="11" text-anchor="middle" fill="#2b6cb0" font-weight="700">HTTP</text>
<text x="2050.0" y="836.0" font-size="11.5" text-anchor="middle" fill="#2b2f36">Generate Image 4</text>
<rect x="2224" y="721.0" width="100" height="100" rx="10" fill="#ffffff" stroke="#f56b6b" stroke-width="3"/>
<rect x="2224" y="721.0" width="100" height="100" rx="10" fill="#f56b6b" fill-opacity="0.10"/>
<text x="2274.0" y="767.0" font-size="11" text-anchor="middle" fill="#f56b6b" font-weight="700">code</text>
<text x="2274.0" y="836.0" font-size="11.5" text-anchor="middle" fill="#2b2f36">Process Image 4</text>
<rect x="2448" y="721.0" width="100" height="100" rx="10" fill="#ffffff" stroke="#ffba00" stroke-width="3"/>
<rect x="2448" y="721.0" width="100" height="100" rx="10" fill="#ffba00" fill-opacity="0.10"/>
<text x="2498.0" y="767.0" font-size="11" text-anchor="middle" fill="#ffba00" font-weight="700">Drive</text>
<text x="2498.0" y="836.0" font-size="11.5" text-anchor="middle" fill="#2b2f36">Upload to Drive 4</text>
<rect x="2672" y="721.0" width="100" height="100" rx="10" fill="#ffffff" stroke="#f56b6b" stroke-width="3"/>
<rect x="2672" y="721.0" width="100" height="100" rx="10" fill="#f56b6b" fill-opacity="0.10"/>
<text x="2722.0" y="767.0" font-size="11" text-anchor="middle" fill="#f56b6b" font-weight="700">code</text>
<text x="2722.0" y="836.0" font-size="11.5" text-anchor="middle" fill="#2b2f36">Prepare Sheet Row 4</text>
<rect x="2896" y="721.0" width="100" height="100" rx="10" fill="#ffffff" stroke="#0f9d58" stroke-width="3"/>
<rect x="2896" y="721.0" width="100" height="100" rx="10" fill="#0f9d58" fill-opacity="0.10"/>
<text x="2946.0" y="767.0" font-size="11" text-anchor="middle" fill="#0f9d58" font-weight="700">Sheets</text>
<text x="2946.0" y="836.0" font-size="11.5" text-anchor="middle" fill="#2b2f36">Write to Sheets 4</text>
<rect x="1776" y="913.0" width="100" height="100" rx="10" fill="#ffffff" stroke="#f56b6b" stroke-width="3"/>
<rect x="1776" y="913.0" width="100" height="100" rx="10" fill="#f56b6b" fill-opacity="0.10"/>
<text x="1826.0" y="959.0" font-size="11" text-anchor="middle" fill="#f56b6b" font-weight="700">code</text>
<text x="1826.0" y="1028.0" font-size="11.5" text-anchor="middle" fill="#2b2f36">Build Image Prompt 5</text>
<rect x="2000" y="913.0" width="100" height="100" rx="10" fill="#ffffff" stroke="#2b6cb0" stroke-width="3"/>
<rect x="2000" y="913.0" width="100" height="100" rx="10" fill="#2b6cb0" fill-opacity="0.10"/>
<text x="2050.0" y="959.0" font-size="11" text-anchor="middle" fill="#2b6cb0" font-weight="700">HTTP</text>
<text x="2050.0" y="1028.0" font-size="11.5" text-anchor="middle" fill="#2b2f36">Generate Image 5</text>
<rect x="2224" y="913.0" width="100" height="100" rx="10" fill="#ffffff" stroke="#f56b6b" stroke-width="3"/>
<rect x="2224" y="913.0" width="100" height="100" rx="10" fill="#f56b6b" fill-opacity="0.10"/>
<text x="2274.0" y="959.0" font-size="11" text-anchor="middle" fill="#f56b6b" font-weight="700">code</text>
<text x="2274.0" y="1028.0" font-size="11.5" text-anchor="middle" fill="#2b2f36">Process Image 5</text>
<rect x="2448" y="913.0" width="100" height="100" rx="10" fill="#ffffff" stroke="#ffba00" stroke-width="3"/>
<rect x="2448" y="913.0" width="100" height="100" rx="10" fill="#ffba00" fill-opacity="0.10"/>
<text x="2498.0" y="959.0" font-size="11" text-anchor="middle" fill="#ffba00" font-weight="700">Drive</text>
<text x="2498.0" y="1028.0" font-size="11.5" text-anchor="middle" fill="#2b2f36">Upload to Drive 5</text>
<rect x="2672" y="913.0" width="100" height="100" rx="10" fill="#ffffff" stroke="#f56b6b" stroke-width="3"/>
<rect x="2672" y="913.0" width="100" height="100" rx="10" fill="#f56b6b" fill-opacity="0.10"/>
<text x="2722.0" y="959.0" font-size="11" text-anchor="middle" fill="#f56b6b" font-weight="700">code</text>
<text x="2722.0" y="1028.0" font-size="11.5" text-anchor="middle" fill="#2b2f36">Prepare Sheet Row 5</text>
<rect x="2896" y="913.0" width="100" height="100" rx="10" fill="#ffffff" stroke="#0f9d58" stroke-width="3"/>
<rect x="2896" y="913.0" width="100" height="100" rx="10" fill="#0f9d58" fill-opacity="0.10"/>
<text x="2946.0" y="959.0" font-size="11" text-anchor="middle" fill="#0f9d58" font-weight="700">Sheets</text>
<text x="2946.0" y="1028.0" font-size="11.5" text-anchor="middle" fill="#2b2f36">Write to Sheets 5</text>
</svg>